<svg width="24" height="24" viewBox="0 0 24 24" fill="none" xmlns="http://www.w3.org/2000/svg">
<path d="M8.3999 16.7999H7.3999V17.7999H8.3999V16.7999ZM8.3999 7.1999V6.1999H7.3999V7.1999H8.3999ZM13.2599 15.7999H8.3999V17.7999H13.2599V15.7999ZM9.3999 16.7999V11.9999H7.3999V16.7999H9.3999ZM16.5999 14.3999C16.5999 12.5462 15.1282 10.9999 13.2599 10.9999V12.9999C13.9762 12.9999 14.5999 13.6027 14.5999 14.3999H16.5999ZM13.2599 17.7999C15.1282 17.7999 16.5999 16.2537 16.5999 14.3999H14.5999C14.5999 15.1971 13.9762 15.7999 13.2599 15.7999V17.7999ZM12.5399 10.9999H8.3999V12.9999H12.5399V10.9999ZM9.3999 11.9999V7.1999H7.3999V11.9999H9.3999ZM12.5399 6.1999H8.3999V8.1999H12.5399V6.1999ZM15.8799 9.5999C15.8799 7.74615 14.4082 6.1999 12.5399 6.1999V8.1999C13.2562 8.1999 13.8799 8.80268 13.8799 9.5999H15.8799ZM12.5399 12.9999C14.4082 12.9999 15.8799 11.4537 15.8799 9.5999H13.8799C13.8799 10.3971 13.2562 10.9999 12.5399 10.9999V12.9999ZM13.2599 10.9999H8.3999V12.9999H13.2599V10.9999ZM4.7999 3.3999H19.1999V1.3999H4.7999V3.3999ZM20.5999 4.7999V19.1999H22.5999V4.7999H20.5999ZM19.1999 20.5999H4.7999V22.5999H19.1999V20.5999ZM3.3999 19.1999V4.7999H1.3999V19.1999H3.3999ZM4.7999 20.5999C4.0267 20.5999 3.3999 19.9731 3.3999 19.1999H1.3999C1.3999 21.0777 2.92213 22.5999 4.7999 22.5999V20.5999ZM20.5999 19.1999C20.5999 19.9731 19.9731 20.5999 19.1999 20.5999V22.5999C21.0777 22.5999 22.5999 21.0777 22.5999 19.1999H20.5999ZM19.1999 3.3999C19.9731 3.3999 20.5999 4.0267 20.5999 4.7999H22.5999C22.5999 2.92213 21.0777 1.3999 19.1999 1.3999V3.3999ZM4.7999 1.3999C2.92213 1.3999 1.3999 2.92213 1.3999 4.7999H3.3999C3.3999 4.0267 4.0267 3.3999 4.7999 3.3999V1.3999Z" fill="currentColor"/>
</svg>
