<?xml version="1.0" encoding="iso-8859-1"?>
<!-- Generator: Adobe Illustrator 19.0.0, SVG Export Plug-In . SVG Version: 6.00 Build 0)  -->
<svg version="1.1" id="Layer_1" xmlns="http://www.w3.org/2000/svg" xmlns:xlink="http://www.w3.org/1999/xlink" x="0px" y="0px"
	 viewBox="0 0 459.173 459.173" style="enable-background:new 0 0 459.173 459.173;" xml:space="preserve">
<g id="XMLID_932_">
	<g>
		<path d="M440.301,64.137c-15.442-48.785-67.091-75.1-115.335-59.782c-44.104,14.007-69.927,57.912-62.979,101.728l-75.13,24.363
			c-27.471-49.698-91.665-62.422-135.866-29.041c-40.418,30.53-48.475,88.252-17.96,128.672
			c28.462,37.706,78.633,46.203,116.805,25.574l57.963,76.772c-24.004,26.406-26.664,67.077-4.393,96.604
			c25.572,33.865,73.086,39.766,106.135,14.821c33.328-25.162,39.972-72.772,14.805-106.138
			c-22.928-30.357-62.935-37.772-94.114-22.246l-57.949-76.754c21.723-22.282,29.841-53.326,24.225-81.83l74.025-24.005
			c20.293,40.994,67.17,60.223,110.013,46.601C428.925,164.119,455.698,112.542,440.301,64.137z M144.752,225.59
			c-27.756,20.964-67.751,16.059-89.276-12.458c-21.175-28.048-15.583-68.103,12.464-89.288c34-25.679,83.302-11.45,98.226,28.772
			c0.038,0.1,0.072,0.202,0.111,0.301C175.451,178.034,168.073,207.994,144.752,225.59z M235.156,345.342
			c20.765-15.674,50.653-11.993,66.744,9.309c15.827,20.984,11.653,50.929-9.303,66.751c-20.807,15.705-50.683,11.953-66.744-9.317
			C210.026,391.103,214.201,361.161,235.156,345.342z M372.031,152.674c-33.319,10.595-69.224-7.475-80.012-41.471
			c-10.678-33.576,7.862-69.374,41.459-80.045c33.343-10.586,69.253,7.473,80.018,41.485
			C424.172,106.206,405.641,142.005,372.031,152.674z" fill="white"/>
	</g>
</g>
<g>
</g>
<g>
</g>
<g>
</g>
<g>
</g>
<g>
</g>
<g>
</g>
<g>
</g>
<g>
</g>
<g>
</g>
<g>
</g>
<g>
</g>
<g>
</g>
<g>
</g>
<g>
</g>
<g>
</g>
</svg>
